# xmcd
# 
# Track frame offsets:
#     150
#     17962
#     37694
#     58934
#     82801
#     103536
#     124953
#     152232
#     170267
#     198384
#     211170
# 
# Disc length: 3013
# 
# Revision: 4
# Processed by: cddbd v1.5.2PL0 Copyright (c) Steve Scherf et al.
# Submitted via: fre:ac v1.0.31
# 
DISCID=890bc30b
DTITLE=Rory Gallagher - Photo-Finish
DYEAR=1978
DGENRE=Rock
TTITLE0=Shin Kicker
TTITLE1=Brute Force and Ignorance
TTITLE2=Cruise On Out
TTITLE3=Cloak And Dagger
TTITLE4=Overnight Bag
TTITLE5=Shadow Play
TTITLE6=The Mississippi Sheiks
TTITLE7=The Last of the Independents
TTITLE8=Fuel to the Fire
TTITLE9=Early Warning
TTITLE10=Juke Box Annie
EXTD=
EXTT0=
EXTT1=
EXTT2=
EXTT3=
EXTT4=
EXTT5=
EXTT6=
EXTT7=
EXTT8=
EXTT9=
EXTT10=
PLAYORDER=
